# xmcd
# Copyright (C) 1995-1998 Ti Kan
#
# Track frame offsets:
#       150
#       12637
#       32187
#       53085
#       66135
#       84585
#       100260
#       120762
#       138510
#       158310
#       179085
#
# Disc length: 2614 seconds
#
# Revision: 0
# Processed by: cddbd v1.5PL3 Copyright (c) Steve Scherf et al.
# Submitted via: CD-Transfer v1.0
#
DISCID=8a0a340b
DTITLE=Booze - Langsam Aber Sicher
DYEAR=2004
DGENRE=
TTITLE0=Heldä
TTITLE1=Tatsach
TTITLE2=Summeraabig
TTITLE3=Fass
TTITLE4=Angscht
TTITLE5=Gas
TTITLE6=Boim
TTITLE7=Schale
TTITLE8=Honig
TTITLE9=Eis
TTITLE10=Atome
EXTD=
EXTT0=
EXTT1=
EXTT2=
EXTT3=
EXTT4=
EXTT5=
EXTT6=
EXTT7=
EXTT8=
EXTT9=
EXTT10=
PLAYORDER=
